# xmcd
#
# Track frame offsets: 
#        150
#        19009
#        40296
#        59169
#        82470
#        100658
#        122813
#        134911
#        155827
#        174304
#        194241
#        222379
#
# Disc length: 3293 seconds
#
# Revision: 1
# Processed by: cddbd v1.5.2PL0 Copyright (c) Steve Scherf et al.
# Submitted via: ExactAudioCopy v0.99pb5
#
DISCID=c20cdb0c
DTITLE=The-Dream - Love King (Clean)
DYEAR=2010
DGENRE=R&B
TTITLE0=Love King (Radio)
TTITLE1=Make Up Bag feat. T.I. (Radio)
TTITLE2=F.I.L.A. (Radio)
TTITLE3=Sex Intelligent (Radio)
TTITLE4=Sex Intelligent (RMX) (Radio)
TTITLE5=Yamaha (Radio)
TTITLE6=Nikki Pt. 2 (Radio)
TTITLE7=Abyss (Radio)
TTITLE8=Panties To The Side (Radio)
TTITLE9=Turnt Out (Radio)
TTITLE10=February Love (Radio)
TTITLE11=Florida University (Radio)
EXTD=
EXTT0=
EXTT1=
EXTT2=
EXTT3=
EXTT4=
EXTT5=
EXTT6=
EXTT7=
EXTT8=
EXTT9=
EXTT10=
EXTT11=
PLAYORDER=
